<svg xmlns="http://www.w3.org/2000/svg" width="143" height="143" viewBox="0 0 143 143" fill="none">
  <g clip-path="url(#clip0_2429_66339)">
    <path d="M132.939 0H57.6833C52.1038 0 47.6227 4.52504 47.6227 10.0605V81.8461C47.5349 87.1619 43.1856 91.4673 37.8258 91.4673H10.0605C4.48111 91.4673 0 95.9923 0 101.528V132.896C0 138.475 4.52504 142.956 10.0605 142.956H41.4283C47.0077 142.956 51.4888 138.431 51.4888 132.896V105.174C51.4888 99.7705 55.882 95.3773 61.2857 95.3773H132.939C138.519 95.3773 143 90.8522 143 85.3167V10.0605C143 4.48111 138.475 0 132.939 0Z" fill="#E7EFE1"/>
  </g>
  <defs>
    <clipPath id="clip0_2429_66339">
      <rect width="143" height="143" fill="white"/>
    </clipPath>
  </defs>
</svg>